<svg width="256" height="256" viewBox="0 0 256 256" fill="none" xmlns="http://www.w3.org/2000/svg">
<g clip-path="url(#clip0_1_4)">
<rect width="256" height="256" rx="40" fill="#FACC15"/>
<path d="M25.2841 182.636V110.636H41.7841V119.602H42.2955C42.9773 118.011 43.9432 116.477 45.1932 115C46.4659 113.523 48.0795 112.318 50.0341 111.386C52.0114 110.432 54.375 109.955 57.125 109.955C60.7614 109.955 64.1591 110.909 67.3182 112.818C70.5 114.727 73.0682 117.67 75.0227 121.648C76.9773 125.625 77.9545 130.693 77.9545 136.852C77.9545 142.784 77.0114 147.75 75.125 151.75C73.2614 155.75 70.7386 158.75 67.5568 160.75C64.3977 162.75 60.8864 163.75 57.0227 163.75C54.3864 163.75 52.1023 163.318 50.1705 162.455C48.2386 161.591 46.6136 160.455 45.2955 159.045C44 157.636 43 156.125 42.2955 154.511H41.9545V182.636H25.2841ZM41.6136 136.818C41.6136 139.636 41.9886 142.091 42.7386 144.182C43.5114 146.273 44.6136 147.898 46.0455 149.057C47.5 150.193 49.2386 150.761 51.2614 150.761C53.3068 150.761 55.0455 150.193 56.4773 149.057C57.9091 147.898 58.9886 146.273 59.7159 144.182C60.4659 142.091 60.8409 139.636 60.8409 136.818C60.8409 134 60.4659 131.557 59.7159 129.489C58.9886 127.42 57.9091 125.818 56.4773 124.682C55.0682 123.545 53.3295 122.977 51.2614 122.977C49.2159 122.977 47.4773 123.534 46.0455 124.648C44.6136 125.761 43.5114 127.352 42.7386 129.42C41.9886 131.489 41.6136 133.955 41.6136 136.818ZM125.686 126.625L110.379 127.034C110.22 125.943 109.789 124.977 109.084 124.136C108.379 123.273 107.459 122.602 106.323 122.125C105.209 121.625 103.914 121.375 102.436 121.375C100.504 121.375 98.8567 121.761 97.4931 122.534C96.1522 123.307 95.4931 124.352 95.5158 125.67C95.4931 126.693 95.9022 127.58 96.7431 128.33C97.6067 129.08 99.1408 129.682 101.345 130.136L111.436 132.045C116.664 133.045 120.55 134.705 123.095 137.023C125.664 139.341 126.959 142.409 126.982 146.227C126.959 149.818 125.891 152.943 123.777 155.602C121.686 158.261 118.823 160.33 115.186 161.807C111.55 163.261 107.391 163.989 102.709 163.989C95.2317 163.989 89.334 162.455 85.0158 159.386C80.7203 156.295 78.2658 152.159 77.6522 146.977L94.1181 146.568C94.4817 148.477 95.4249 149.932 96.9476 150.932C98.4703 151.932 100.414 152.432 102.777 152.432C104.914 152.432 106.652 152.034 107.993 151.239C109.334 150.443 110.016 149.386 110.039 148.068C110.016 146.886 109.493 145.943 108.47 145.239C107.448 144.511 105.845 143.943 103.664 143.534L94.5272 141.795C89.2772 140.841 85.3681 139.08 82.7999 136.511C80.2317 133.92 78.959 130.625 78.9817 126.625C78.959 123.125 79.8908 120.136 81.7772 117.659C83.6635 115.159 86.3453 113.25 89.8226 111.932C93.2999 110.614 97.4022 109.955 102.129 109.955C109.22 109.955 114.811 111.443 118.902 114.42C122.993 117.375 125.254 121.443 125.686 126.625ZM128.469 163V110.636H145.14V163H128.469ZM136.821 104.534C134.48 104.534 132.469 103.761 130.787 102.216C129.105 100.648 128.265 98.7614 128.265 96.5568C128.265 94.375 129.105 92.5114 130.787 90.9659C132.469 89.3977 134.48 88.6136 136.821 88.6136C139.185 88.6136 141.196 89.3977 142.855 90.9659C144.537 92.5114 145.378 94.375 145.378 96.5568C145.378 98.7614 144.537 100.648 142.855 102.216C141.196 103.761 139.185 104.534 136.821 104.534ZM165.701 133.136V163H149.03V110.636H164.883V120.25H165.462C166.621 117.045 168.599 114.534 171.394 112.716C174.189 110.875 177.519 109.955 181.383 109.955C185.064 109.955 188.258 110.784 190.962 112.443C193.689 114.08 195.803 116.375 197.303 119.33C198.826 122.261 199.576 125.693 199.553 129.625V163H182.883V132.898C182.905 129.989 182.167 127.716 180.667 126.08C179.189 124.443 177.133 123.625 174.496 123.625C172.746 123.625 171.201 124.011 169.86 124.784C168.542 125.534 167.519 126.614 166.792 128.023C166.087 129.432 165.724 131.136 165.701 133.136ZM232.711 110.636V122.909H199.677V110.636H232.711ZM206.597 98.0909H223.268V146.534C223.268 147.557 223.427 148.386 223.745 149.023C224.086 149.636 224.575 150.08 225.211 150.352C225.847 150.602 226.609 150.727 227.495 150.727C228.131 150.727 228.802 150.67 229.506 150.557C230.234 150.42 230.779 150.307 231.143 150.216L233.665 162.25C232.87 162.477 231.745 162.761 230.29 163.102C228.859 163.443 227.143 163.659 225.143 163.75C221.234 163.932 217.881 163.477 215.086 162.386C212.313 161.273 210.188 159.545 208.711 157.205C207.256 154.864 206.552 151.92 206.597 148.375V98.0909Z" fill="#78350F"/>
</g>
<defs>
<clipPath id="clip0_1_4">
<rect width="256" height="256" fill="white"/>
</clipPath>
</defs>
</svg>
